<?xml version="1.0" encoding="utf-8"?>
<svg width="2363" height="2363" xmlns="http://www.w3.org/2000/svg">
  <path style="stroke: none; fill: rgb(153, 27, 27);" d="M0 0L0 2363L2363 2363L2363 0L0 0z"/>
  <path style="stroke: none; fill: rgb(255, 255, 255);" d="M1150 67.4243C1094.48 74.7168 1039.12 75.3176 984 87.4243C807.132 126.269 642.483 207.314 511 333.039C430.309 410.196 363.891 502.074 316.219 603C274.798 690.692 248.16 785.554 237.834 882C220.764 1041.45 249.306 1206.43 319.258 1351C410.582 1539.74 569.413 1695.67 759 1785.22C887.982 1846.14 1033.26 1881.35 1176 1883C1196.14 1883.23 1216.95 1880.08 1237 1878.17C1268.64 1875.16 1300.43 1873.87 1332 1869.72C1634.61 1829.93 1916.39 1632.6 2049.74 1357C2103.03 1246.87 2132.62 1128.1 2137.96 1006C2148.65 761.702 2047.79 515.526 1873 345.015C1752.72 227.682 1605.01 144.725 1443 100.849C1377.46 83.0984 1310.56 73.5361 1243 68.9106C1213.06 66.8608 1179.92 63.4949 1150 67.4243z"/>
  <path style="stroke: none; fill: rgb(153, 27, 27);" d="M1179 91.4243C1158.42 94.1277 1136.76 92.6682 1116 94.0894C1067.73 97.394 1019.32 104.032 972 114.424C798.596 152.508 630.123 242.279 507.039 371C428.999 452.615 362.538 546.744 320.4 652C283.022 745.366 263.937 842.008 257.09 942C251.704 1020.65 263.586 1102.84 282.627 1179C332.416 1378.16 456.907 1555.65 623 1675.58C730.619 1753.28 855.54 1807.14 985 1835.58C1049.09 1849.65 1117.4 1858.75 1183 1858C1234.47 1857.4 1287.94 1850.43 1339 1843.72C1432.92 1831.37 1524.47 1800.51 1609 1758.25C1697.62 1713.94 1779.92 1658.33 1851 1588.99C2006.01 1437.77 2102.49 1229.48 2111.96 1013C2116.14 917.553 2105.86 821.585 2078.28 730C1993.39 448.143 1761.48 226.63 1483 137.656C1413.24 115.368 1341.8 101.876 1269 94.8303C1240.41 92.0635 1207.59 87.6692 1179 91.4243z"/>
  <path style="stroke: none; fill: rgb(255, 255, 255);" d="M1677 942C1682.57 954.508 1690.21 966.209 1695.58 979C1703.36 997.561 1706.4 1015.05 1723 1028.53C1737.07 1039.96 1754.91 1043.1 1772 1047.37C1790.2 1051.92 1808.32 1057.6 1826 1063.86C1843.89 1070.2 1858.49 1082.1 1874 1092.66C1897.69 1108.78 1921.39 1123.51 1940.83 1145C1964.48 1171.15 1977.2 1200.17 1990.87 1232C1994.8 1241.15 2002.22 1253.49 2014 1250.58C2032.2 1246.08 2039.82 1218.75 2046.78 1204C2070.51 1153.74 2077.61 1097.8 2082.83 1043C2092.76 938.645 2078.88 830.112 2048.72 730C2018.89 630.996 1968.09 537.622 1903.6 457C1848.65 388.305 1784.47 327.975 1712 278.025C1456.14 101.681 1117.53 68.7964 831 187.011C755.319 218.235 684.816 259.689 620 309.651C544.817 367.605 479.944 438.084 427.333 517C372.62 599.07 332.626 692.074 309.884 788C295.36 849.263 286.471 914.012 288.015 977C288.978 1016.32 293.919 1056.95 298.715 1096C302.066 1123.28 307.665 1148.29 322.425 1172C327.547 1180.23 334.472 1192.13 345 1193.79C360.384 1196.2 367.017 1181.47 372.753 1170C387.309 1140.89 395.939 1109.52 411.86 1081C449.019 1014.43 513.03 970.515 571 923.389C601.354 898.713 630.939 868.345 665 848.873C694.699 831.894 732.862 832.412 766 830.961C855.311 827.05 941.573 853.256 1022 891.219C1055.63 907.094 1095.22 926.025 1118.49 956C1130.35 971.282 1137.57 990.561 1137.95 1010C1138.21 1023.89 1135.57 1038.05 1137.29 1052C1140.82 1080.74 1156.55 1103.9 1178 1122.71C1228.84 1167.31 1288.7 1188.1 1348 1217.75C1373.36 1230.43 1408.31 1248.37 1418.45 1277C1423.72 1291.87 1417.4 1304.08 1410.31 1317C1401.03 1333.88 1391.35 1350.51 1381.4 1367C1363.05 1397.42 1341.99 1427.46 1310 1444.69C1283.82 1458.79 1256.41 1456.74 1228 1460.16C1189.52 1464.77 1151.92 1474 1113 1474C1074.4 1474 1039.57 1457.13 1002 1475.26C977.482 1487.09 957.074 1506.2 934 1520.57C909.197 1536.02 881.689 1546.95 858 1564.15C835.717 1580.34 821.4 1607.69 791 1609.91C772.434 1611.26 751.268 1604.43 733 1601.25C690.98 1593.94 648.514 1586.17 608 1572.67C596.099 1568.7 581.776 1561.11 569 1562.09C562.436 1562.6 554.716 1566.69 554.177 1574C553.433 1584.09 564.136 1592.25 571 1597.8C589.061 1612.41 606.593 1627.71 625 1641.88C705.552 1703.91 793.524 1751.17 890 1783.33C1161.54 1873.85 1476.07 1835.86 1712 1670.72C1758.05 1638.49 1801.25 1602.75 1841 1563C1857.98 1546.02 1878.34 1527.52 1891.05 1507C1898.25 1495.36 1891.68 1484.47 1878 1483.39C1864.06 1482.29 1848.51 1491.51 1836 1496.6C1812.73 1506.08 1790.05 1516.53 1766 1523.97C1732.33 1534.4 1697.38 1540.87 1663 1548.42C1644.75 1552.43 1612.53 1565.42 1595 1556.18C1584.49 1550.64 1580.4 1537.76 1584.88 1527C1592.5 1508.68 1618.55 1482.34 1593 1466.13C1574.29 1454.27 1551.76 1468.69 1532 1466.83C1501.04 1463.92 1477.11 1440.53 1457.58 1418C1448.75 1407.83 1440.45 1398.08 1436.35 1385C1425.64 1350.82 1455.7 1324.63 1466.94 1295C1471.59 1282.73 1475.38 1269.19 1475.96 1256C1476.93 1233.83 1473.39 1212.04 1482.28 1191C1497.97 1153.91 1536.37 1130.26 1547.57 1091C1555.06 1064.76 1550 1035.84 1550 1009C1550 999.3 1547.77 983.739 1555.22 976.148C1562.18 969.066 1571.89 976.657 1578 981.156C1590.16 990.11 1599.5 1001.91 1611 1011.56C1615.62 1015.43 1621.54 1020.1 1628 1018.58C1636.65 1016.54 1642.42 1005.2 1646.22 998C1655.06 981.253 1661.43 953.465 1677 942z"/>
  <path style="stroke: none; fill: rgb(153, 27, 27);" d="M1466 215.754C1452.54 215.438 1433.65 228.866 1446.23 242.907C1452.46 249.867 1462.59 252.543 1471 255.811C1484.47 261.045 1497.8 266.985 1511 272.861C1550.14 290.282 1586.41 313.787 1624 334.231C1639.17 342.482 1662.49 362.295 1681 358.032C1692.44 355.397 1695.88 344.347 1689.35 335C1679.83 321.374 1663.51 310.953 1650 301.659C1608.62 273.19 1563.16 249.12 1516 231.681C1501.32 226.254 1481.73 216.123 1466 215.754M726 294.639C710.769 298.942 695.181 314.338 683 323.997C655.946 345.449 628.126 366.391 603.039 390.17C592.632 400.035 588.41 423.711 610 421.891C622.685 420.822 637.314 404.385 647 396.79C677.811 372.63 717.556 348.298 740.363 316C747.807 305.457 739.322 290.875 726 294.639M1223 373.439C1199.9 377.075 1181.84 394.541 1167.8 412C1131.09 457.676 1106.07 552.346 1170 587.688C1178.17 592.206 1186.84 595.398 1196 597.196C1209.7 599.883 1224.23 599.779 1238 597.562C1264.57 593.283 1294.24 579.861 1309.64 557C1330.37 526.231 1325.62 476.647 1312.4 444C1298.26 409.092 1265.39 366.766 1223 373.439M1525 376.425C1478.93 382.696 1443.09 425.669 1423.76 465C1416.56 479.642 1408.95 498.38 1410.09 515C1411.31 532.819 1420.98 547.328 1432.91 559.985C1456.4 584.894 1494.25 608.797 1530 603.714C1548.99 601.015 1563.73 587.84 1575.95 574C1607.76 537.973 1619.88 475.655 1600.14 431C1587.77 403.023 1558.63 371.848 1525 376.425M1038 610.439C969.106 621.2 956.752 708.132 982.753 760C997.827 790.071 1025.19 812.559 1060 807.572C1101.13 801.679 1151.44 770.47 1153.79 725C1154.4 713.237 1149.1 700.669 1144.8 690C1129.07 651.012 1084.59 603.161 1038 610.439M1354 611.468C1344.11 613.33 1336.33 620.341 1329 626.718C1315.11 638.804 1302.02 651.98 1289 665C1245.79 708.215 1199.23 752.621 1179 812C1168.9 841.648 1165.77 873.903 1188.17 899C1219.08 933.624 1262.34 947.499 1303 921.308C1315.63 913.174 1326.72 903.04 1339 894.438C1344.92 890.287 1352.41 885.451 1360 886.2C1375.39 887.719 1388.9 904.976 1400 914.246C1419.72 930.709 1443.07 940.062 1469 934.999C1482.23 932.417 1494.74 927.456 1506 919.996C1514.02 914.682 1521.35 908.365 1527.56 901C1572.09 848.233 1523.09 778.807 1489.63 734C1482.26 724.131 1474.64 714.462 1466.75 705C1457.25 693.594 1447.2 682.85 1437.09 672C1420.75 654.464 1403.22 636.814 1384 622.375C1375.41 615.923 1365.27 609.346 1354 611.468M1653 613.424C1606.84 619.559 1550.37 657.844 1546.17 708C1543.16 744.071 1582.26 779.841 1609 797.667C1620.05 805.031 1634.22 812.339 1648 810.713C1665.93 808.597 1679.57 797.418 1692 784.996C1718.85 758.138 1738.05 720.654 1731.56 682C1725.25 644.361 1694.68 607.885 1653 613.424z"/>
  <path style="stroke: none; fill: rgb(255, 255, 255);" d="M788 887.468C778.363 889.282 769.396 896.551 762 902.616C739.808 920.815 724.002 947.897 724 977C723.998 1003.54 733.704 1027.95 737.725 1054C742.03 1081.88 741 1108.92 741 1137C741 1162.43 740.598 1191.83 720.985 1210.96C701.189 1230.27 680.111 1206.15 665 1192.84C622.069 1155.05 578.654 1118.13 539.914 1076C530.676 1065.95 521.397 1055.98 512.089 1046C504.741 1038.12 497.082 1030.5 486.004 1036.96C454.742 1055.18 491.357 1093.18 506.004 1108C552.77 1155.33 601.728 1200.06 652 1243.72C668.387 1257.95 690.912 1285.6 715 1279.49C753.48 1269.71 774.668 1230.28 782.651 1195C791.856 1154.32 791.824 1114.27 787.83 1073C784.908 1042.81 778.008 1011.4 780.089 981C781.067 966.725 784.439 952.373 791.823 940C797.226 930.945 805.449 923.949 809.185 914C814.79 899.074 804.51 884.359 788 887.468M528 1952.71C508.177 1952.97 490.84 1959.95 482.312 1979C473.483 1998.73 478 2025.86 478 2047L478 2076C478 2107.76 469.708 2155.97 509 2167.96C517.697 2170.62 527.001 2170.21 536 2169.99C554.908 2169.52 571.144 2157.08 576.56 2139C581.777 2121.59 579 2101.01 579 2083L579 2021C579 2008.36 580.25 1995.19 576.251 1983C569.148 1961.35 549.49 1952.42 528 1952.71M1716 2088L1684 2088C1684 2100.16 1687.56 2119.07 1681.58 2130C1674.91 2142.21 1657.27 2141.02 1652.15 2128C1648.15 2117.85 1650 2104.68 1650 2094L1650 2028C1650 2017.05 1647.78 2001.86 1653.53 1992.02C1660.18 1980.64 1676.91 1982.29 1682.2 1994C1686.51 2003.55 1684 2017.72 1684 2028L1716 2028C1716 2008.51 1718.87 1986.84 1706.96 1970C1689.21 1944.92 1641.03 1946.41 1624.55 1972C1613.48 1989.19 1617 2012.6 1617 2032L1617 2107C1617 2122.02 1616.02 2137.76 1624.55 2151C1641.7 2177.63 1691.18 2177.57 1708.3 2151C1719.88 2133.02 1716 2108.34 1716 2088M2177 2088L2145 2088C2145 2100.16 2148.56 2119.07 2142.58 2130C2135.91 2142.21 2118.27 2141.02 2113.15 2128C2109.15 2117.85 2111 2104.68 2111 2094L2111 2028C2111 2017.05 2108.78 2001.86 2114.53 1992.02C2121.18 1980.64 2137.91 1982.29 2143.2 1994C2147.51 2003.55 2145 2017.72 2145 2028L2177 2028C2177 2008.51 2179.87 1986.84 2167.96 1970C2150.21 1944.92 2102.03 1946.41 2085.55 1972C2074.48 1989.19 2078 2012.59 2078 2032L2078 2106C2078 2121.32 2076.85 2137.49 2085.55 2151C2102.7 2177.62 2152.18 2177.57 2169.3 2151C2180.88 2133.02 2177 2108.34 2177 2088M600 1954L600 2168L633 2168L633 2082C640.839 2082 650.22 2080.75 656.96 2085.65C664.346 2091.03 664.496 2099.8 665.576 2108C668.201 2127.93 663.91 2148.17 668 2168L703 2168C697.228 2142.82 702.985 2116.99 698.195 2092C696.033 2080.72 690.674 2068.87 679 2065L679 2063C701.418 2054.31 699 2025.38 699 2006C699 1997.53 698.923 1989.15 696.251 1981C694.12 1974.5 690.185 1968.67 684.996 1964.21C664.904 1946.97 624.545 1954 600 1954M721 1954L721 2168L812 2168L812 2137L754 2137L754 2075L800 2075L800 2044L754 2044L754 1986L812 1986L812 1954L721 1954M220 1955C215.713 2009.32 202.93 2064.13 194.576 2118C192.026 2134.44 187.714 2151.38 187 2168C193.736 2168 211.968 2171.24 217.258 2166.97C219.656 2165.04 219.48 2159.8 219.87 2157C221.171 2147.66 222.817 2138.36 224 2129L252 2129L262.397 2130.6L265.13 2142L269 2168L303 2168L294.272 2109L270 1955L220 1955M318 1955L318 2168L347 2168L347 2021L348 2021L356.92 2080L371 2168L404 2168C404.994 2119.85 423.601 2072.16 424 2024L425 2024L425 2168L457 2168L457 1955L410 1955C408.972 2004.81 389.412 2054.17 389 2104L388 2104L381.754 2062L365 1955L318 1955M902 1955C897.713 2009.32 884.93 2064.13 876.576 2118C874.026 2134.44 869.713 2151.38 869 2168C875.736 2168 893.968 2171.24 899.258 2166.97C901.656 2165.04 901.48 2159.8 901.87 2157C903.171 2147.66 904.817 2138.36 906 2129L934 2129L944.397 2130.6L947.13 2142L951 2168L985 2168L976.272 2109L952 1955L902 1955M1001 1955L1001 2168L1031 2168L1031 2017L1032 2017C1033.02 2028.72 1037.74 2040.61 1040.63 2052C1047.14 2077.71 1054.2 2103.28 1060.63 2129C1062.88 2138.02 1065.37 2146.98 1067.63 2156C1068.43 2159.23 1068.84 2164.82 1071.7 2166.97C1077.92 2171.66 1098.24 2168 1106 2168L1106 1955L1076 1955L1076 2080C1064.06 2052.25 1059.22 2018.35 1051.87 1989C1050.01 1981.57 1048.37 1960.77 1042.27 1956.03C1039.63 1953.98 1034.13 1955 1031 1955L1001 1955M1129 1955L1129 2168L1162 2168L1162 1955L1129 1955M1186 1955L1186 2168L1215 2168L1215 2021L1216 2021L1224.92 2080L1239 2168L1272 2168C1272.99 2119.85 1291.6 2072.16 1292 2024L1293 2024L1293 2168L1325 2168L1325 1955L1278 1955C1276.97 2004.81 1257.41 2054.17 1257 2104L1256 2104L1249.75 2062L1233 1955L1186 1955M1373 1955C1368.71 2009.32 1355.93 2064.13 1347.58 2118C1345.03 2134.44 1340.71 2151.38 1340 2168C1346.74 2168 1364.97 2171.24 1370.26 2166.97C1372.66 2165.04 1372.48 2159.8 1372.87 2157C1374.17 2147.66 1375.82 2138.36 1377 2129L1405 2129L1415.4 2130.6L1418.13 2142L1422 2168L1456 2168L1447.27 2109L1423 1955L1373 1955M1471 1955L1471 2168L1559 2168L1559 2137L1504 2137L1504 1955L1471 1955M1736 1955L1736 2168L1824 2168L1824 2137L1769 2137L1769 1955L1736 1955M1838 1955L1838 2168L1871 2168L1871 1955L1838 1955M1895 1955L1895 2168L1925 2168L1925 2017L1926 2017C1927.02 2028.72 1931.74 2040.61 1934.63 2052C1941.14 2077.71 1948.2 2103.28 1954.63 2129C1956.88 2138.02 1959.37 2146.98 1961.63 2156C1962.43 2159.23 1962.84 2164.82 1965.7 2166.97C1971.92 2171.66 1992.24 2168 2000 2168L2000 1955L1970 1955L1970 2080C1958.06 2052.25 1953.22 2018.35 1945.87 1989C1944.01 1981.57 1942.37 1960.77 1936.27 1956.03C1933.63 1953.98 1928.13 1955 1925 1955L1895 1955M2024 1955L2024 2168L2057 2168L2057 1955L2024 1955z"/>
  <path style="stroke: none; fill: rgb(153, 27, 27);" d="M524 1984.53C509.121 1987.97 511 2007.18 511 2019C511 2051.23 509.629 2083.8 511.039 2116C511.611 2129.05 517.467 2142.06 533 2138.47C547.879 2135.03 546 2115.82 546 2104C546 2072.1 547.356 2039.87 545.961 2008C545.381 1994.77 540.214 1980.78 524 1984.53M633 1986L633 2050C640.978 2050 652.307 2052.08 658.895 2046.58C668.952 2038.19 665.859 2013.78 664.907 2002C664.55 1997.59 663.013 1992.62 659.66 1989.56C653.226 1983.68 641.028 1986 633 1986M243 1995L228 2100L259 2100L248.271 2027L243 1995M925 1995L910 2100L941 2100L930.271 2027L925 1995M1396 1995L1381 2100L1412 2100L1401.27 2027L1396 1995z"/>
</svg>